<?xml version="1.0" encoding="UTF-8" standalone="no"?>
<svg
   width="0.293333in"
   height="0.28in"
   viewBox="0 0 88 84"
   version="1.1"
   id="svg1"
   sodipodi:docname="ff.svg"
   inkscape:version="1.4 (86a8ad7, 2024-10-11)"
   xmlns:inkscape="http://www.inkscape.org/namespaces/inkscape"
   xmlns:sodipodi="http://sodipodi.sourceforge.net/DTD/sodipodi-0.dtd"
   xmlns="http://www.w3.org/2000/svg"
   xmlns:svg="http://www.w3.org/2000/svg">
  <defs
     id="defs1" />
  <sodipodi:namedview
     id="namedview1"
     pagecolor="#808080"
     bordercolor="#000000"
     borderopacity="0.25"
     inkscape:showpageshadow="2"
     inkscape:pageopacity="0.0"
     inkscape:pagecheckerboard="0"
     inkscape:deskcolor="#d1d1d1"
     inkscape:document-units="in"
     inkscape:zoom="7.5055803"
     inkscape:cx="22.183494"
     inkscape:cy="13.78974"
     inkscape:window-width="1920"
     inkscape:window-height="1009"
     inkscape:window-x="-8"
     inkscape:window-y="-8"
     inkscape:window-maximized="1"
     inkscape:current-layer="svg1" />
  <path
     id="red"
     fill="none"
     stroke="#000000"
     stroke-width="1"
     d="M 2,43 H 42 V 82 H 2 Z"
     sodipodi:nodetypes="ccccc"
     style="fill:#ff0000;fill-opacity:1" />
  <path
     id="blue"
     fill="none"
     stroke="black"
     stroke-width="1"
     d="M 2.00,2.00            C 2.00,2.00 42.00,2.00 42.00,2.00              42.00,2.00 42.00,41.00 42.00,41.00              42.00,41.00 2.00,41.00 2.00,41.00              2.00,41.00 2.00,2.00 2.00,2.00 Z            M 44.00,2.00            C 44.00,2.00 85.00,2.00 85.00,2.00              85.00,2.00 85.00,41.00 85.00,41.00              85.00,41.00 44.00,41.00 44.00,41.00              44.00,41.00 44.00,2.00 44.00,2.00 Z            M 44.00,43.00            C 44.00,43.00 85.00,43.00 85.00,43.00              85.00,43.00 85.00,82.00 85.00,82.00              85.00,82.00 44.00,82.00 44.00,82.00              44.00,82.00 44.00,43.00 44.00,43.00 Z"
     style="fill:#0001ff;fill-opacity:1" />
</svg>
